<svg xmlns="http://www.w3.org/2000/svg" viewBox="0 0 20 16" width="320" height="256" shape-rendering="crispEdges">
<g fill="#1a0f0a">
<rect x="5" y="0" width="1" height="1"/>
<rect x="6" y="0" width="1" height="1"/>
<rect x="7" y="0" width="1" height="1"/>
<rect x="8" y="0" width="1" height="1"/>
<rect x="9" y="0" width="1" height="1"/>
<rect x="10" y="0" width="1" height="1"/>
<rect x="4" y="1" width="1" height="1"/>
<rect x="5" y="1" width="1" height="1"/>
<rect x="6" y="1" width="1" height="1"/>
<rect x="7" y="1" width="1" height="1"/>
<rect x="8" y="1" width="1" height="1"/>
<rect x="9" y="1" width="1" height="1"/>
<rect x="10" y="1" width="1" height="1"/>
<rect x="11" y="1" width="1" height="1"/>
<rect x="3" y="2" width="1" height="1"/>
<rect x="4" y="2" width="1" height="1"/>
<rect x="5" y="2" width="1" height="1"/>
<rect x="6" y="2" width="1" height="1"/>
<rect x="7" y="2" width="1" height="1"/>
<rect x="8" y="2" width="1" height="1"/>
<rect x="9" y="2" width="1" height="1"/>
<rect x="10" y="2" width="1" height="1"/>
<rect x="11" y="2" width="1" height="1"/>
<rect x="12" y="2" width="1" height="1"/>
<rect x="3" y="3" width="1" height="1"/>
<rect x="4" y="3" width="1" height="1"/>
<rect x="12" y="3" width="1" height="1"/>
<rect x="3" y="4" width="1" height="1"/>
<rect x="13" y="4" width="1" height="1"/>
<rect x="3" y="5" width="1" height="1"/>
<rect x="13" y="5" width="1" height="1"/>
</g>
<g fill="#e8c840">
<rect x="13" y="2" width="1" height="1"/>
<rect x="13" y="3" width="1" height="1"/>
</g>
<g fill="#c8a830">
<rect x="14" y="2" width="1" height="1"/>
<rect x="14" y="3" width="1" height="1"/>
</g>
<g fill="#e0b88a">
<rect x="5" y="3" width="1" height="1"/>
<rect x="11" y="3" width="1" height="1"/>
<rect x="4" y="4" width="1" height="1"/>
<rect x="7" y="4" width="1" height="1"/>
<rect x="9" y="4" width="1" height="1"/>
<rect x="12" y="4" width="1" height="1"/>
<rect x="7" y="5" width="1" height="1"/>
<rect x="12" y="5" width="1" height="1"/>
</g>
<g fill="#d4a574">
<rect x="6" y="3" width="1" height="1"/>
<rect x="7" y="3" width="1" height="1"/>
<rect x="8" y="3" width="1" height="1"/>
<rect x="9" y="3" width="1" height="1"/>
<rect x="10" y="3" width="1" height="1"/>
<rect x="5" y="4" width="1" height="1"/>
<rect x="8" y="4" width="1" height="1"/>
<rect x="11" y="4" width="1" height="1"/>
<rect x="4" y="5" width="1" height="1"/>
<rect x="5" y="5" width="1" height="1"/>
<rect x="6" y="5" width="1" height="1"/>
<rect x="8" y="5" width="1" height="1"/>
<rect x="9" y="5" width="1" height="1"/>
<rect x="10" y="5" width="1" height="1"/>
<rect x="11" y="5" width="1" height="1"/>
<rect x="4" y="6" width="1" height="1"/>
<rect x="12" y="6" width="1" height="1"/>
<rect x="4" y="7" width="1" height="1"/>
<rect x="12" y="7" width="1" height="1"/>
</g>
<g fill="#0d0d0d">
<rect x="6" y="4" width="1" height="1"/>
<rect x="10" y="4" width="1" height="1"/>
<rect x="5" y="15" width="1" height="1"/>
<rect x="6" y="15" width="1" height="1"/>
<rect x="9" y="15" width="1" height="1"/>
<rect x="10" y="15" width="1" height="1"/>
</g>
<g fill="#2c1810">
<rect x="5" y="6" width="1" height="1"/>
<rect x="11" y="6" width="1" height="1"/>
<rect x="5" y="7" width="1" height="1"/>
<rect x="6" y="7" width="1" height="1"/>
<rect x="7" y="7" width="1" height="1"/>
<rect x="8" y="7" width="1" height="1"/>
<rect x="9" y="7" width="1" height="1"/>
<rect x="10" y="7" width="1" height="1"/>
<rect x="11" y="7" width="1" height="1"/>
</g>
<g fill="#3d2817">
<rect x="6" y="6" width="1" height="1"/>
<rect x="8" y="6" width="1" height="1"/>
<rect x="10" y="6" width="1" height="1"/>
</g>
<g fill="#8b4513">
<rect x="7" y="6" width="1" height="1"/>
<rect x="9" y="6" width="1" height="1"/>
</g>
<g fill="#c0392b">
<rect x="3" y="8" width="1" height="1"/>
<rect x="12" y="8" width="1" height="1"/>
<rect x="3" y="9" width="1" height="1"/>
<rect x="12" y="9" width="1" height="1"/>
<rect x="3" y="10" width="1" height="1"/>
<rect x="12" y="10" width="1" height="1"/>
<rect x="3" y="11" width="1" height="1"/>
<rect x="12" y="11" width="1" height="1"/>
<rect x="4" y="12" width="1" height="1"/>
<rect x="11" y="12" width="1" height="1"/>
</g>
<g fill="#8b1a1a">
<rect x="4" y="8" width="1" height="1"/>
<rect x="11" y="8" width="1" height="1"/>
<rect x="4" y="9" width="1" height="1"/>
<rect x="11" y="9" width="1" height="1"/>
<rect x="4" y="10" width="1" height="1"/>
<rect x="11" y="10" width="1" height="1"/>
<rect x="4" y="11" width="1" height="1"/>
<rect x="11" y="11" width="1" height="1"/>
</g>
<g fill="#2c2c3e">
<rect x="5" y="8" width="1" height="1"/>
<rect x="6" y="8" width="1" height="1"/>
<rect x="7" y="8" width="1" height="1"/>
<rect x="8" y="8" width="1" height="1"/>
<rect x="9" y="8" width="1" height="1"/>
<rect x="10" y="8" width="1" height="1"/>
<rect x="5" y="9" width="1" height="1"/>
<rect x="10" y="9" width="1" height="1"/>
<rect x="5" y="10" width="1" height="1"/>
<rect x="6" y="10" width="1" height="1"/>
<rect x="9" y="10" width="1" height="1"/>
<rect x="10" y="10" width="1" height="1"/>
<rect x="5" y="11" width="1" height="1"/>
<rect x="6" y="11" width="1" height="1"/>
<rect x="7" y="11" width="1" height="1"/>
<rect x="8" y="11" width="1" height="1"/>
<rect x="9" y="11" width="1" height="1"/>
<rect x="10" y="11" width="1" height="1"/>
<rect x="6" y="12" width="1" height="1"/>
<rect x="7" y="12" width="1" height="1"/>
<rect x="8" y="12" width="1" height="1"/>
<rect x="9" y="12" width="1" height="1"/>
</g>
<g fill="#e8e0d0">
<rect x="6" y="9" width="1" height="1"/>
<rect x="7" y="9" width="1" height="1"/>
<rect x="8" y="9" width="1" height="1"/>
<rect x="9" y="9" width="1" height="1"/>
<rect x="7" y="10" width="1" height="1"/>
<rect x="8" y="10" width="1" height="1"/>
</g>
<g fill="#1c1c2e">
<rect x="6" y="13" width="1" height="1"/>
<rect x="7" y="13" width="1" height="1"/>
<rect x="8" y="13" width="1" height="1"/>
<rect x="9" y="13" width="1" height="1"/>
<rect x="5" y="14" width="1" height="1"/>
<rect x="6" y="14" width="1" height="1"/>
<rect x="9" y="14" width="1" height="1"/>
<rect x="10" y="14" width="1" height="1"/>
</g>
</svg>