<svg xmlns="http://www.w3.org/2000/svg" viewBox="0 0 20 15" width="320" height="240" shape-rendering="crispEdges">
<g fill="#2c1810">
<rect x="5" y="0" width="1" height="1"/>
<rect x="10" y="0" width="1" height="1"/>
<rect x="12" y="1" width="1" height="1"/>
<rect x="12" y="2" width="1" height="1"/>
<rect x="12" y="3" width="1" height="1"/>
</g>
<g fill="#1a1008">
<rect x="6" y="0" width="1" height="1"/>
<rect x="7" y="0" width="1" height="1"/>
<rect x="8" y="0" width="1" height="1"/>
<rect x="9" y="0" width="1" height="1"/>
<rect x="4" y="1" width="1" height="1"/>
<rect x="5" y="1" width="1" height="1"/>
<rect x="6" y="1" width="1" height="1"/>
<rect x="7" y="1" width="1" height="1"/>
<rect x="8" y="1" width="1" height="1"/>
<rect x="9" y="1" width="1" height="1"/>
<rect x="10" y="1" width="1" height="1"/>
<rect x="11" y="1" width="1" height="1"/>
<rect x="4" y="2" width="1" height="1"/>
<rect x="5" y="2" width="1" height="1"/>
<rect x="6" y="2" width="1" height="1"/>
<rect x="7" y="2" width="1" height="1"/>
<rect x="8" y="2" width="1" height="1"/>
<rect x="9" y="2" width="1" height="1"/>
<rect x="10" y="2" width="1" height="1"/>
<rect x="11" y="2" width="1" height="1"/>
<rect x="4" y="3" width="1" height="1"/>
</g>
<g fill="#f0d0a0">
<rect x="5" y="3" width="1" height="1"/>
<rect x="11" y="3" width="1" height="1"/>
</g>
<g fill="#deb887">
<rect x="6" y="3" width="1" height="1"/>
<rect x="7" y="3" width="1" height="1"/>
<rect x="8" y="3" width="1" height="1"/>
<rect x="9" y="3" width="1" height="1"/>
<rect x="10" y="3" width="1" height="1"/>
<rect x="4" y="4" width="1" height="1"/>
<rect x="12" y="4" width="1" height="1"/>
<rect x="13" y="4" width="1" height="1"/>
<rect x="5" y="5" width="1" height="1"/>
<rect x="6" y="5" width="1" height="1"/>
<rect x="7" y="5" width="1" height="1"/>
<rect x="8" y="5" width="1" height="1"/>
<rect x="9" y="5" width="1" height="1"/>
<rect x="10" y="5" width="1" height="1"/>
<rect x="11" y="5" width="1" height="1"/>
<rect x="6" y="6" width="1" height="1"/>
<rect x="7" y="6" width="1" height="1"/>
<rect x="9" y="6" width="1" height="1"/>
<rect x="10" y="6" width="1" height="1"/>
</g>
<g fill="#1a1a2e">
<rect x="5" y="4" width="1" height="1"/>
<rect x="6" y="4" width="1" height="1"/>
<rect x="9" y="4" width="1" height="1"/>
<rect x="10" y="4" width="1" height="1"/>
</g>
<g fill="#0a0a0a">
<rect x="7" y="4" width="1" height="1"/>
<rect x="8" y="4" width="1" height="1"/>
<rect x="11" y="4" width="1" height="1"/>
</g>
<g fill="#b87455">
<rect x="8" y="6" width="1" height="1"/>
</g>
<g fill="#f5e6c8">
<rect x="5" y="7" width="1" height="1"/>
<rect x="6" y="7" width="1" height="1"/>
<rect x="7" y="7" width="1" height="1"/>
<rect x="8" y="7" width="1" height="1"/>
<rect x="9" y="7" width="1" height="1"/>
<rect x="10" y="7" width="1" height="1"/>
<rect x="11" y="7" width="1" height="1"/>
<rect x="5" y="8" width="1" height="1"/>
<rect x="6" y="8" width="1" height="1"/>
<rect x="10" y="8" width="1" height="1"/>
<rect x="11" y="8" width="1" height="1"/>
<rect x="5" y="9" width="1" height="1"/>
<rect x="6" y="9" width="1" height="1"/>
<rect x="10" y="9" width="1" height="1"/>
<rect x="11" y="9" width="1" height="1"/>
<rect x="5" y="10" width="1" height="1"/>
<rect x="6" y="10" width="1" height="1"/>
<rect x="10" y="10" width="1" height="1"/>
<rect x="11" y="10" width="1" height="1"/>
<rect x="5" y="11" width="1" height="1"/>
<rect x="6" y="11" width="1" height="1"/>
<rect x="7" y="11" width="1" height="1"/>
<rect x="8" y="11" width="1" height="1"/>
<rect x="9" y="11" width="1" height="1"/>
<rect x="10" y="11" width="1" height="1"/>
</g>
<g fill="#8b4513">
<rect x="4" y="8" width="1" height="1"/>
<rect x="12" y="8" width="1" height="1"/>
<rect x="4" y="9" width="1" height="1"/>
<rect x="12" y="9" width="1" height="1"/>
<rect x="4" y="10" width="1" height="1"/>
<rect x="12" y="10" width="1" height="1"/>
</g>
<g fill="#6b8e6b">
<rect x="7" y="8" width="1" height="1"/>
<rect x="8" y="8" width="1" height="1"/>
<rect x="9" y="8" width="1" height="1"/>
<rect x="7" y="9" width="1" height="1"/>
<rect x="8" y="9" width="1" height="1"/>
<rect x="9" y="9" width="1" height="1"/>
<rect x="7" y="10" width="1" height="1"/>
<rect x="8" y="10" width="1" height="1"/>
<rect x="9" y="10" width="1" height="1"/>
</g>
<g fill="#333333">
<rect x="11" y="11" width="1" height="1"/>
</g>
<g fill="#3d3d5c">
<rect x="6" y="12" width="1" height="1"/>
<rect x="7" y="12" width="1" height="1"/>
<rect x="8" y="12" width="1" height="1"/>
<rect x="9" y="12" width="1" height="1"/>
<rect x="5" y="13" width="1" height="1"/>
<rect x="6" y="13" width="1" height="1"/>
<rect x="9" y="13" width="1" height="1"/>
<rect x="10" y="13" width="1" height="1"/>
</g>
<g fill="#1a1a1a">
<rect x="5" y="14" width="1" height="1"/>
<rect x="6" y="14" width="1" height="1"/>
<rect x="9" y="14" width="1" height="1"/>
<rect x="10" y="14" width="1" height="1"/>
</g>
</svg>